<?xml version="1.0" encoding="utf-8"?>
<!-- Generator: Adobe Illustrator 16.0.0, SVG Export Plug-In . SVG Version: 6.00 Build 0)  -->
<!DOCTYPE svg PUBLIC "-//W3C//DTD SVG 1.1//EN" "http://www.w3.org/Graphics/SVG/1.1/DTD/svg11.dtd">
<svg version="1.1" id="Layer_1" xmlns="http://www.w3.org/2000/svg" xmlns:xlink="http://www.w3.org/1999/xlink" x="0px" y="0px"
	 width="70px" height="70px" viewBox="0 0 232.525 70" enable-background="new 0 0 232.525 70" xml:space="preserve">
<g>
	<radialGradient id="SVGID_1_" cx="29.4316" cy="35" r="32.3361" gradientUnits="userSpaceOnUse">
		<stop  offset="0" style="stop-color:#F8861F"/>
		<stop  offset="1" style="stop-color:#FF1800"/>
	</radialGradient>
	<path fill="url(#SVGID_1_)" d="M47.532,12.603c0.665-1.213,1.044-2.605,1.044-4.084C48.577,3.822,44.755,0,40.059,0
		c-3.993,0-7.353,2.761-8.271,6.474C31.01,6.412,30.224,6.38,29.432,6.38C13.177,6.38,0,19.557,0,35.812
		c0,7.997,3.19,15.246,8.366,20.551c-1.075,1.426-1.713,3.199-1.713,5.118c0,4.698,3.822,8.52,8.521,8.52
		c3.61,0,6.704-2.259,7.941-5.438c2.035,0.445,4.149,0.683,6.317,0.683c16.255,0,29.432-13.179,29.432-29.433
		C58.864,26.382,54.429,17.99,47.532,12.603z M40.057,13.749c-0.456,0-0.899-0.059-1.321-0.168L35.21,23.839l5.162-0.843
		l-7.269,11.85l6.049-1.471L18.769,57.689c1.003,0.952,1.63,2.299,1.63,3.791c0,2.887-2.341,5.229-5.228,5.229
		c-2.888,0-5.23-2.343-5.23-5.229c0-2.888,2.342-5.229,5.23-5.229c0.666,0,1.302,0.126,1.888,0.354l5.774-12.595l-5.634,1.525
		l9.163-13.113l-5.632,1.362l15.968-21.259c-1.144-0.959-1.872-2.398-1.872-4.008c0-2.887,2.342-5.229,5.23-5.229
		c2.886,0,5.228,2.342,5.228,5.229C45.285,11.407,42.943,13.749,40.057,13.749z"/>
</g>
</svg>
