<?xml version="1.0" encoding="utf-8"?>
<!-- Generator: Adobe Illustrator 16.0.0, SVG Export Plug-In . SVG Version: 6.00 Build 0)  -->
<!DOCTYPE svg PUBLIC "-//W3C//DTD SVG 1.1//EN" "http://www.w3.org/Graphics/SVG/1.1/DTD/svg11.dtd">
<svg version="1.1" id="Layer_1" xmlns="http://www.w3.org/2000/svg" xmlns:xlink="http://www.w3.org/1999/xlink" x="0px" y="0px"
	 width="232.525px" height="70px" viewBox="0 0 232.525 70" enable-background="new 0 0 232.525 70" xml:space="preserve">
	<g>
		<radialGradient id="SVGID_1_" cx="29.4316" cy="35" r="32.3361" gradientUnits="userSpaceOnUse">
			<stop  offset="0" style="stop-color:#F8861F"/>
			<stop  offset="1" style="stop-color:#FF1800"/>
		</radialGradient>
		<path fill="url(#SVGID_1_)" d="M47.532,12.603c0.665-1.213,1.044-2.605,1.044-4.084C48.577,3.822,44.755,0,40.059,0
			c-3.993,0-7.353,2.761-8.271,6.474C31.01,6.412,30.224,6.38,29.432,6.38C13.177,6.38,0,19.557,0,35.812
			c0,7.997,3.19,15.246,8.366,20.551c-1.075,1.426-1.713,3.199-1.713,5.118c0,4.698,3.822,8.52,8.521,8.52
			c3.61,0,6.704-2.259,7.941-5.438c2.035,0.445,4.149,0.683,6.317,0.683c16.255,0,29.432-13.179,29.432-29.433
			C58.864,26.382,54.429,17.99,47.532,12.603z M40.057,13.749c-0.456,0-0.899-0.059-1.321-0.168L35.21,23.839l5.162-0.843
			l-7.269,11.85l6.049-1.471L18.769,57.689c1.003,0.952,1.63,2.299,1.63,3.791c0,2.887-2.341,5.229-5.228,5.229
			c-2.888,0-5.23-2.343-5.23-5.229c0-2.888,2.342-5.229,5.23-5.229c0.666,0,1.302,0.126,1.888,0.354l5.774-12.595l-5.634,1.525
			l9.163-13.113l-5.632,1.362l15.968-21.259c-1.144-0.959-1.872-2.398-1.872-4.008c0-2.887,2.342-5.229,5.23-5.229
			c2.886,0,5.228,2.342,5.228,5.229C45.285,11.407,42.943,13.749,40.057,13.749z"/>
		<g>
			<path d="M75.242,14.184h11.962c4.629,0.032,8.1,2.017,10.415,5.955c0.828,1.324,1.352,2.711,1.57,4.165
				c0.172,1.453,0.258,3.962,0.258,7.528c0,3.793-0.133,6.44-0.398,7.941c-0.125,0.758-0.313,1.436-0.563,2.034
				c-0.266,0.58-0.586,1.186-0.962,1.815c-1.001,1.661-2.393,3.034-4.175,4.114c-1.767,1.163-3.933,1.744-6.497,1.744h-11.61V14.184z
				 M80.417,44.448h6.199c2.911,0,5.023-1.028,6.339-3.081c0.579-0.761,0.947-1.724,1.103-2.888c0.141-1.148,0.212-3.299,0.212-6.453
				c0-3.073-0.071-5.272-0.212-6.599c-0.188-1.326-0.633-2.401-1.337-3.227c-1.441-2.054-3.476-3.048-6.104-2.983h-6.199V44.448z"/>
			<path d="M122.194,46.857c-1.609,1.878-3.703,2.849-6.281,2.915c-1.577-0.034-2.888-0.381-3.935-1.042
				c-1.095-0.631-1.93-1.309-2.508-2.035c-0.64-0.824-1.101-1.833-1.382-3.029c-0.297-1.179-0.444-3.423-0.444-6.734
				c0-3.376,0.147-5.661,0.444-6.857c0.282-1.178,0.742-2.172,1.382-2.979c0.579-0.787,1.414-1.493,2.508-2.121
				c1.046-0.593,2.358-0.906,3.935-0.938c2.421,0,4.515,0.993,6.281,2.978v-2.663h4.884v24.523c-0.062,3.777-1.116,6.553-3.161,8.328
				c-2.061,1.825-4.526,2.736-7.399,2.736c-3.293-0.064-6.104-1.466-8.43-4.204l3.796-3.116c0.625,0.601,1.342,1.11,2.155,1.532
				c0.828,0.472,1.687,0.723,2.578,0.754c1.67,0,3.016-0.477,4.03-1.434c1-0.974,1.516-2.318,1.548-4.038V46.857z M112.53,36.94
				c0,1.928,0.062,3.255,0.188,3.984c0.109,0.761,0.368,1.393,0.774,1.895c0.328,0.453,0.829,0.866,1.501,1.238
				c0.64,0.453,1.439,0.681,2.393,0.681c0.954,0,1.752-0.228,2.393-0.681c0.641-0.372,1.126-0.785,1.455-1.238
				c0.405-0.502,0.68-1.134,0.82-1.895c0.095-0.729,0.142-2.057,0.142-3.984c0-1.959-0.047-3.32-0.142-4.081
				c-0.141-0.761-0.415-1.376-0.82-1.846c-0.329-0.454-0.814-0.899-1.455-1.336c-0.641-0.372-1.438-0.574-2.393-0.607
				c-0.954,0.033-1.752,0.235-2.393,0.607c-0.672,0.437-1.173,0.883-1.501,1.336c-0.406,0.47-0.665,1.085-0.774,1.846
				C112.592,33.621,112.53,34.981,112.53,36.94z"/>
			<path d="M136.729,24.352h4.885v2.663h0.103c1.611-1.985,3.722-2.978,6.333-2.978c1.955,0.032,3.66,0.676,5.115,1.93l-3.568,4.366
				c-1.033-0.841-2.105-1.262-3.216-1.262c-1.252,0-2.325,0.42-3.217,1.26c-1.001,0.824-1.519,2.158-1.55,4v15.151h-4.885V24.352z"/>
			<path d="M170.39,47.254h-0.095c-0.452,0.855-1.155,1.485-2.108,1.89c-0.938,0.418-2.234,0.629-3.891,0.629
				c-2.719-0.034-4.812-0.775-6.281-2.228c-1.547-1.421-2.32-3.235-2.32-5.446c0-2.114,0.672-3.865,2.016-5.254
				c1.344-1.419,3.312-2.145,5.906-2.178h6.773v-2.651c0.031-2.222-1.633-3.299-4.994-3.235c-1.22,0-2.181,0.129-2.885,0.389
				c-0.734,0.308-1.313,0.827-1.733,1.557l-3.847-3.03c1.858-2.504,4.6-3.724,8.224-3.66c3.061-0.032,5.506,0.565,7.333,1.792
				c1.828,1.259,2.757,3.422,2.788,6.488v17.165h-4.886V47.254z M170.39,38.826h-5.871c-2.853,0.064-4.261,1.074-4.229,3.029
				c0,0.854,0.368,1.583,1.104,2.18c0.705,0.663,1.871,0.993,3.5,0.993c2.051,0.033,3.499-0.218,4.345-0.75
				c0.769-0.533,1.151-1.744,1.151-3.635V38.826z"/>
			<path d="M184.876,24.352h4.886v2.614c1.626-1.872,3.719-2.849,6.281-2.929c2.984,0.08,5.164,1.179,6.538,3.293
				c0.671,0.791,1.131,1.831,1.381,3.122c0.232,1.276,0.35,3.438,0.35,6.488c0,2.97-0.117,5.1-0.352,6.391
				c-0.249,1.291-0.71,2.35-1.381,3.173c-0.673,0.967-1.556,1.742-2.649,2.324c-1.077,0.597-2.373,0.91-3.889,0.944
				c-1.25,0-2.366-0.281-3.351-0.844c-1.062-0.513-2.038-1.221-2.929-2.12v12.841h-4.886V24.352z M194.571,44.738
				c1.156,0,2.07-0.228,2.744-0.681c0.672-0.47,1.148-1.068,1.432-1.797c0.311-0.761,0.521-1.604,0.632-2.527
				c0.031-0.906,0.047-1.837,0.047-2.793c0-1.004-0.016-1.983-0.047-2.939c-0.11-0.956-0.321-1.797-0.632-2.526
				c-0.283-0.761-0.76-1.361-1.432-1.798c-0.674-0.405-1.588-0.607-2.744-0.607c-1.095,0-1.964,0.235-2.604,0.705
				c-0.674,0.47-1.166,1.084-1.479,1.846c-0.298,0.761-0.493,1.587-0.586,2.478c-0.095,0.94-0.142,1.886-0.142,2.842
				c0,0.892,0.047,1.781,0.142,2.673c0.093,0.938,0.288,1.789,0.586,2.55c0.312,0.762,0.805,1.377,1.479,1.846
				C192.607,44.495,193.477,44.738,194.571,44.738z"/>
			<path d="M213.09,14.184h4.886v12.831h0.094c1.609-1.985,3.718-2.978,6.327-2.978c2.014,0,3.857,0.735,5.527,2.203
				c1.657,1.486,2.523,3.664,2.602,6.537v16.705h-4.886V34.5c0-1.762-0.454-3.103-1.361-4.024c-0.891-0.938-2.04-1.406-3.448-1.406
				c-1.406,0-2.563,0.468-3.47,1.406c-0.924,0.921-1.385,2.263-1.385,4.024v14.981h-4.886V14.184z"/>
		</g>
	</g>
</svg>
