<?xml version="1.0" standalone="no"?>
<!DOCTYPE svg PUBLIC "-//W3C//DTD SVG 1.1//EN" "http://www.w3.org/Graphics/SVG/1.1/DTD/svg11.dtd" >
<svg xmlns="http://www.w3.org/2000/svg">
<metadata></metadata>
<defs>
<font id="novecento_sans_wideultralight" horiz-adv-x="207" >
<font-face units-per-em="1000" ascent="821" descent="-179" />
<missing-glyph horiz-adv-x="250" />
<glyph horiz-adv-x="1000" />
<glyph horiz-adv-x="1000" />
<glyph unicode="&#xd;" horiz-adv-x="1000" />
<glyph unicode=" "  horiz-adv-x="250" />
<glyph unicode="&#x09;" horiz-adv-x="250" />
<glyph unicode="&#xa0;" horiz-adv-x="250" />
<glyph unicode="!" d="M117 700v-563h-27v563h27zM104 -10q-16 0 -25 9.5t-9 23.5t9.5 23t24.5 9q16 0 25 -9.5t9 -22.5q0 -15 -9 -24t-25 -9z" />
<glyph unicode="&#x22;" horiz-adv-x="220" d="M75 700l-2 -217h-23l-2 217h27zM169 700l-2 -217h-23l-2 217h27z" />
<glyph unicode="#" horiz-adv-x="658" d="M423 154h113l-6 -23h-114l-35 -131h-25l35 131h-207l-35 -131h-25l35 131h-114l6 23h115l68 254h-112l6 23h112l35 129h25l-35 -129h207l35 129h25l-35 -129h116l-6 -23h-116zM259 408l-68 -254h207l68 254h-207z" />
<glyph unicode="$" horiz-adv-x="455" d="M415 141q0 -69 -45.5 -110t-124.5 -43v-78h-25v78q-159 9 -180 150l25 7q7 -64 53 -97.5t118 -33.5q70 0 111 33.5t41 93.5q0 36 -14 61.5t-42 40t-53 22t-62 15.5q-7 1 -11 2q-25 5 -40 9.5t-39.5 15.5t-38 25t-24.5 38.5t-11 56.5q0 62 42 101t117 43v79h25v-79 q148 -5 174 -134l-26 -7q-13 56 -49.5 85.5t-106.5 29.5q-71 0 -110 -32t-39 -85q0 -59 39 -84.5t114 -40.5q29 -6 47.5 -10.5t47 -16.5t45 -28t29.5 -43.5t13 -63.5z" />
<glyph unicode="%" horiz-adv-x="688" d="M155 214q-119 0 -119 178t119 178t119 -178t-119 -178zM452 560l-189 -560h-29l189 560h29zM155 238q95 0 95 154t-95 154t-95 -154t95 -154zM533 -7q-119 0 -119 178q0 179 119 179t119 -179q0 -178 -119 -178zM533 17q95 0 95 154t-95 154t-95 -154t95 -154z" />
<glyph unicode="&#x26;" horiz-adv-x="604" d="M481 280v-96q0 -97 -54.5 -146.5t-157.5 -49.5q-99 0 -152.5 43.5t-53.5 116.5q0 62 37 100t91 45v2q-47 9 -83 43t-36 93q0 66 47 103t136 37q53 0 96 -12t80 -47.5t48 -92.5l-25 -7q-31 133 -198 133q-157 0 -157 -112q0 -55 41.5 -90.5t116.5 -35.5h317v-26zM454 281 h-196q-74 0 -121 -34t-47 -99q0 -62 45.5 -98t133.5 -36q185 0 185 170v97z" />
<glyph unicode="'" horiz-adv-x="126" d="M75 700l-2 -217h-23l-2 217h27z" />
<glyph unicode="(" horiz-adv-x="320" d="M295 796l13 -24q-109 -40 -165 -154.5t-56 -323.5t56 -323.5t165 -154.5l-13 -24q-122 44 -178.5 168t-56.5 334t56.5 334t178.5 168z" />
<glyph unicode=")" horiz-adv-x="320" d="M25 -208l-13 24q109 40 165 154.5t56 323.5t-56 323.5t-165 154.5l13 24q122 -44 178.5 -168t56.5 -334t-56.5 -334t-178.5 -168z" />
<glyph unicode="*" horiz-adv-x="506" d="M276 527l85 -124l-21 -14l-87 122l-87 -122l-21 14l85 124l-140 45l8 23l142 -43v148h26v-148l142 43l8 -23z" />
<glyph unicode="+" horiz-adv-x="668" d="M515 281h-167v-179h-29v179h-167v26h167v177h29v-177h167v-26z" />
<glyph unicode="," horiz-adv-x="186" d="M105 -9q-17 -4 -28 4t-11 24q0 32 34 32q35 0 35 -42q0 -30 -19.5 -65.5t-53.5 -48.5l-14 13q25 10 41 36.5t16 46.5z" />
<glyph unicode="-" horiz-adv-x="588" d="M475 281h-363v26h363v-26z" />
<glyph unicode="." horiz-adv-x="186" d="M93 -10q-16 0 -25 9.5t-9 23.5t9.5 23t24.5 9q16 0 25 -9.5t9 -22.5q0 -15 -9.5 -24t-24.5 -9z" />
<glyph unicode="/" horiz-adv-x="448" d="M418 700l-358 -700h-30l358 700h30z" />
<glyph unicode="0" horiz-adv-x="508" d="M254 571q105 0 159.5 -76t54.5 -215t-54.5 -215.5t-159.5 -76.5q-106 0 -160 76t-54 216q0 139 54 215t160 76zM254 545q-94 0 -140.5 -69t-46.5 -196t46.5 -196.5t140.5 -69.5t140.5 69.5t46.5 196.5t-46.5 196t-140.5 69z" />
<glyph unicode="1" horiz-adv-x="307" d="M190 0v447q0 18 1 39t1 32l1 12h-1l-9 -10q-9 -10 -20.5 -22t-15.5 -16l-79 -82l-18 18l141 142h26v-560h-27z" />
<glyph unicode="2" horiz-adv-x="476" d="M51 0v31l212 174q72 59 102.5 102t30.5 94q0 62 -42 103t-121 41q-77 0 -116 -38.5t-42 -94.5l-25 7q6 76 59 114t128 38q87 0 136.5 -48t49.5 -125q0 -54 -31 -99.5t-111 -111.5l-195 -160l1 -1h82h257v-26h-375z" />
<glyph unicode="3" horiz-adv-x="470" d="M312 295v-3q52 -7 85 -43t33 -95q0 -75 -53.5 -120.5t-135.5 -45.5t-137.5 45.5t-63.5 116.5l24 7q10 -68 58.5 -105.5t121.5 -37.5q77 0 117.5 41t40.5 101q0 62 -43 93.5t-120 31.5h-50v26h50q158 0 158 118q0 58 -40 89t-115 31q-86 0 -121.5 -37t-42.5 -96l-25 7 q9 78 61 115t132 37q88 0 133 -40t45 -103q0 -53 -31 -89t-81 -44z" />
<glyph unicode="4" horiz-adv-x="501" d="M367 0h-27v163h-305v29l297 368h35v-371h84v-26h-84v-163zM340 406v124h-1l-276 -340l1 -1h108h168v217z" />
<glyph unicode="5" horiz-adv-x="497" d="M94 294l1 -1q17 26 59 48t99 22q85 0 139.5 -51.5t54.5 -136.5t-55 -136t-140 -51q-77 0 -132 43.5t-70 119.5l25 6q12 -68 60.5 -105.5t116.5 -37.5q74 0 121 43.5t47 118.5q0 74 -47.5 117.5t-126.5 43.5q-62 0 -101.5 -25.5t-53.5 -60.5l-23 7l49 302h293v-26h-273 l-22 -133q-3 -18 -6 -35.5t-5.5 -29.5t-5 -22t-3.5 -15z" />
<glyph unicode="6" horiz-adv-x="488" d="M96 301l2 -1q51 65 147 65q88 0 143 -52t55 -133q0 -84 -56.5 -138t-145.5 -54q-88 0 -143.5 54t-55.5 142t62 169l160 207h33zM242 14q77 0 125 45.5t49 120.5q1 72 -46.5 115.5t-127.5 43.5q-79 0 -126 -43.5t-47 -116.5q0 -74 47.5 -119.5t125.5 -45.5z" />
<glyph unicode="7" horiz-adv-x="443" d="M418 536l-302 -536h-30l270 482q7 13 15.5 25.5t12.5 19.5l5 7l-1 1q-38 -1 -71 -1h-287v26h388v-24z" />
<glyph unicode="8" horiz-adv-x="490" d="M40 148q0 64 42.5 102t100.5 42v2q-36 3 -76.5 38t-40.5 93q0 62 47.5 104t131.5 42q82 0 130.5 -42t48.5 -103q0 -41 -23 -72.5t-48.5 -44.5t-44.5 -15v-2q57 -4 99.5 -42.5t42.5 -101.5q0 -72 -56.5 -116t-148.5 -44t-148.5 44t-56.5 116zM92 424q0 -55 43.5 -87.5 t109.5 -31.5q69 1 111 34.5t42 85.5t-41.5 86t-111.5 34q-72 0 -112.5 -34t-40.5 -87zM67 149q0 -63 48 -99t130 -36t130 36t48 99q0 62 -47.5 96t-130.5 34t-130.5 -34t-47.5 -96z" />
<glyph unicode="9" horiz-adv-x="497" d="M397 255l-1 1q-60 -66 -153 -66q-89 0 -143.5 52.5t-54.5 136.5q0 85 56.5 138.5t146.5 53.5q89 0 146.5 -52t57.5 -142q0 -55 -26.5 -107.5t-90.5 -129.5l-120 -140h-33zM248 545q-74 0 -125 -42t-51 -125q0 -82 50.5 -122t125.5 -40q77 0 127 42t50 122q0 82 -51 123.5 t-126 41.5z" />
<glyph unicode=":" horiz-adv-x="186" d="M93 349q-16 0 -25 9.5t-9 23.5t9.5 23t24.5 9q16 0 25 -9.5t9 -22.5q0 -14 -9.5 -23.5t-24.5 -9.5zM93 -10q-16 0 -25 9.5t-9 23.5t9.5 23t24.5 9q16 0 25 -9.5t9 -22.5q0 -15 -9.5 -24t-24.5 -9z" />
<glyph unicode=";" horiz-adv-x="186" d="M93 349q-16 0 -25 9.5t-9 23.5t9.5 23t24.5 9q16 0 25 -9.5t9 -22.5q0 -14 -9.5 -23.5t-24.5 -9.5zM105 -9q-17 -4 -28 4t-11 24q0 32 34 32q35 0 35 -42q0 -30 -19.5 -65.5t-53.5 -48.5l-14 13q25 10 41 36.5t16 46.5z" />
<glyph unicode="&#x3c;" horiz-adv-x="668" d="M539 47l-451 232v32l451 232v-30l-425 -217v-2l425 -217v-30z" />
<glyph unicode="=" horiz-adv-x="668" d="M515 358h-363v26h363v-26zM515 205h-363v26h363v-26z" />
<glyph unicode="&#x3e;" horiz-adv-x="668" d="M554 294v2l-425 217v30l451 -232v-32l-451 -232v30z" />
<glyph unicode="?" horiz-adv-x="555" d="M248 137v182q128 48 180.5 94.5t52.5 112.5q0 65 -45 113t-150 48q-176 0 -216 -163l-25 7q21 91 84 137t160 46q113 0 167 -55.5t54 -130.5q0 -44 -19 -81t-54.5 -63.5t-72.5 -45t-87 -36.5v-165h-29zM261 -10q-16 0 -25 9.5t-9 23.5t9.5 23t24.5 9q16 0 25 -9.5 t9 -22.5q0 -15 -9.5 -24t-24.5 -9z" />
<glyph unicode="@" horiz-adv-x="782" d="M536 419v-228q0 -87 72 -87q48 0 75 43t27 121q0 143 -90.5 236.5t-229.5 93.5q-138 0 -228 -93.5t-90 -240.5q0 -146 85 -239t226 -93q154 0 233 79l20 -16q-48 -49 -120.5 -69t-131.5 -20q-154 0 -246.5 101.5t-92.5 257.5q0 155 98.5 257t247.5 102t247.5 -102 t98.5 -255q0 -88 -34.5 -138t-94.5 -50q-37 0 -64 23t-31 65h-2q-16 -42 -52.5 -65t-83.5 -23q-65 0 -112.5 48.5t-47.5 127.5q0 78 43.5 130t116.5 52q34 0 61 -10t41.5 -24.5t21.5 -25.5t9 -19h2v61h26zM375 105q61 0 95 38.5t40 98.5v30q0 62 -37 100.5t-98 38.5 q-64 0 -98.5 -43t-34.5 -113t37 -110t96 -40z" />
<glyph unicode="A" horiz-adv-x="715" d="M552 230h-389l-104 -230h-29l315 700h25l315 -700h-29zM541 255l-95 211q-13 29 -35 80t-37 86l-16 36h-1l-15 -36q-16 -35 -38 -86t-35 -80l-95 -211h367z" />
<glyph unicode="B" horiz-adv-x="618" d="M395 377v-3q27 -2 55.5 -12t57 -30t47 -57t18.5 -85q0 -93 -61 -141.5t-169 -48.5h-253v700h220q96 0 151.5 -45.5t55.5 -120.5q0 -70 -36 -108.5t-86 -48.5zM117 385h200q78 0 125.5 37.5t47.5 109.5q0 66 -49 104t-135 38h-189v-289zM117 26h228q92 0 146.5 40.5 t54.5 120.5t-60 126t-144 46h-225v-333z" />
<glyph unicode="C" horiz-adv-x="781" d="M701 197l25 -7q-42 -95 -128 -148.5t-196 -53.5q-153 0 -255 100.5t-102 263.5q0 165 101 263.5t257 98.5q115 0 196.5 -52.5t116.5 -131.5l-25 -8q-10 22 -27.5 45t-50 53t-87 49t-121.5 19q-147 0 -240 -90.5t-93 -245.5q0 -154 94.5 -246t235.5 -92q98 0 178 48.5 t121 134.5z" />
<glyph unicode="D" horiz-adv-x="715" d="M90 700h207q168 0 270.5 -95t102.5 -258q0 -161 -100.5 -254t-262.5 -93h-217v700zM117 26h190q147 0 241.5 84.5t94.5 236.5q0 154 -95.5 240.5t-250.5 86.5h-180v-648z" />
<glyph unicode="E" horiz-adv-x="591" d="M90 0v700h446v-26h-419v-289h336v-26h-336v-333h419v-26h-446z" />
<glyph unicode="F" horiz-adv-x="576" d="M536 674h-419v-297h336v-26h-336v-351h-27v700h446v-26z" />
<glyph unicode="G" horiz-adv-x="797" d="M727 0h-26q0 46 0.5 76.5t0.5 43v14.5h-1q-15 -21 -36.5 -41.5t-58 -46.5t-90 -42t-114.5 -16q-153 0 -255 100t-102 263q0 165 102 264t258 99q115 0 196.5 -52.5t116.5 -131.5l-25 -8q-10 22 -27.5 45t-50 53t-87 49t-121.5 19q-148 0 -241.5 -90.5t-93.5 -244.5 q0 -155 94 -247t236 -92q106 0 188.5 50.5t110.5 108.5v142h-229v26h255v-341z" />
<glyph unicode="H" horiz-adv-x="693" d="M576 0v359h-459v-359h-27v700h27v-315h459v315h27v-700h-27z" />
<glyph unicode="I" d="M90 0v700h27v-700h-27z" />
<glyph unicode="J" horiz-adv-x="470" d="M385 700v-440q0 -131 -55.5 -201.5t-160.5 -70.5q-102 0 -169 86l14 24q60 -84 156 -84q91 0 139 62.5t48 179.5v444h28z" />
<glyph unicode="K" horiz-adv-x="613" d="M561 0l-297 402l-147 -149v-253h-27v700h27v-234v-44v-39t-0.5 -32.5t-0.5 -26.5v-19v-13v-4h1l138 141l269 271h34l-274 -278l309 -423z" />
<glyph unicode="L" horiz-adv-x="560" d="M90 0v700h27v-674h403v-26h-430z" />
<glyph unicode="M" horiz-adv-x="793" d="M676 0v406v36t0.5 45.5t1 48.5t0.5 47t0.5 39.5t0.5 27.5v11h-1l-3 -7q-3 -6 -11 -21.5t-19 -36.5t-30 -56t-42 -75l-166 -293h-21l-164 289q-23 41 -43 77t-31 57.5t-19 37t-11 21.5l-3 7h-1v-11q0 -10 0.5 -27.5t1 -39.5t0.5 -47t0.5 -48.5t0.5 -45.5v-36v-406h-27v700 h28l278 -497h1l278 497h28v-700h-27z" />
<glyph unicode="N" horiz-adv-x="713" d="M596 0l-481 665h-1v-5q0 -5 0.5 -13t1 -19.5t0.5 -26t0.5 -30t0.5 -34v-35.5v-502h-27v700h27l481 -661h1v5q0 5 -0.5 13t-0.5 19.5t-0.5 26t-1 30t-0.5 33.5v35v499h27v-700h-27z" />
<glyph unicode="O" horiz-adv-x="807" d="M45 351q0 162 103 262.5t255 100.5t255.5 -100.5t103.5 -262.5t-103.5 -262.5t-255.5 -100.5t-255 100.5t-103 262.5zM72 351q0 -154 94.5 -245.5t236.5 -91.5t237 91.5t95 245.5t-95 245.5t-237 91.5t-236.5 -91.5t-94.5 -245.5z" />
<glyph unicode="P" horiz-adv-x="552" d="M90 700h181q120 0 185.5 -51t65.5 -152q0 -99 -66 -151t-185 -52h-154v-294h-27v700zM117 320h154q110 0 167 45t57 132q0 177 -224 177h-154v-354z" />
<glyph unicode="Q" horiz-adv-x="807" d="M762 351q0 -158 -98.5 -258t-246.5 -105v-120h-29v120q-147 5 -245 105.5t-98 257.5q0 162 103 262.5t255 100.5t255.5 -100.5t103.5 -262.5zM403 14q142 0 237 91.5t95 245.5t-95 245.5t-237 91.5t-236.5 -91.5t-94.5 -245.5t94.5 -245.5t236.5 -91.5z" />
<glyph unicode="R" horiz-adv-x="575" d="M491 0l-177 303q-18 -1 -82 -1h-115v-302h-27v700h182q118 0 184 -54t66 -152q0 -163 -178 -188l181 -306h-34zM117 327h160q218 0 218 167q0 91 -59.5 135.5t-165.5 44.5h-153v-347z" />
<glyph unicode="S" horiz-adv-x="571" d="M40 190l26 7q3 -92 68.5 -137.5t167.5 -45.5q96 0 149 40.5t53 120.5q0 27 -6.5 49t-15.5 37.5t-26.5 28.5t-29.5 20.5t-36.5 15t-36 10.5t-38.5 8t-34 7q-39 9 -61 14.5t-56.5 20.5t-53.5 32.5t-34 48.5t-15 70q0 83 57 130t161 47q96 0 158.5 -42t81.5 -127l-26 -7 q-34 150 -213 150q-93 0 -142.5 -39t-49.5 -109q0 -41 16 -70.5t48.5 -47t62 -27t75.5 -18.5q31 -6 47.5 -9.5t46 -12t46.5 -17t39 -24t33.5 -34t20 -45.5t8.5 -59q0 -92 -60.5 -140t-171.5 -48q-47 0 -88 9t-79.5 30.5t-63 63t-28.5 99.5z" />
<glyph unicode="T" horiz-adv-x="623" d="M583 674h-258v-674h-27v674h-258v26h543v-26z" />
<glyph unicode="U" horiz-adv-x="687" d="M607 700v-420q0 -292 -264 -292q-263 0 -263 292v420h27v-424q0 -262 236 -262q121 0 179 65.5t58 196.5v424h27z" />
<glyph unicode="V" horiz-adv-x="655" d="M339 0h-23l-296 700h28l166 -390q18 -43 36.5 -87t31.5 -76t23.5 -58t16.5 -40l5 -14h1l6 13q5 14 15 39.5t23 57t31 75t36 85.5l168 395h28z" />
<glyph unicode="W" horiz-adv-x="915" d="M633 0l-109 333q-15 47 -31.5 101.5t-25.5 84.5l-9 30h-1l-9 -31q-9 -30 -25.5 -86t-33.5 -106l-107 -326h-23l-239 700h27l121 -354q18 -53 43.5 -129t42 -124.5t16.5 -49.5h1q0 1 14.5 48.5t35.5 114l33 104.5l91 278h25l91 -278l33 -104.5t35.5 -114t14.5 -48.5h1 q0 1 16 49.5t40 122.5t42 125l125 360h27l-239 -700h-23z" />
<glyph unicode="X" horiz-adv-x="631" d="M578 0l-158 210q-32 42 -59 79t-36 49l-9 11h-1q-3 0 -108 -141l-154 -208h-33l278 367l-250 333h32l151 -201q86 -115 88 -115h1q1 0 84 115l147 201h32l-248 -335l276 -365h-33z" />
<glyph unicode="Y" horiz-adv-x="622" d="M324 322v-322h-27v322l-277 378h32l187 -255l72 -97h1l8 11q8 11 25 34.5t35 48.5l190 258h32z" />
<glyph unicode="Z" horiz-adv-x="646" d="M601 676l-440 -550q-18 -23 -34 -42.5t-24 -29.5t-14 -17t-8 -9l-2 -3l1 -1h4q4 0 10.5 0.5t15.5 1t21 0.5h25h445v-26h-556v24l442 552q24 31 45 55.5t29 33.5l8 9l-1 1h-2h-4t-7 -0.5t-10.5 -0.5h-14h-18h-22.5h-435v26h546v-24z" />
<glyph unicode="[" horiz-adv-x="320" d="M279 -182v-26h-184v1004h184v-26h-154v-952h154z" />
<glyph unicode="\" horiz-adv-x="448" d="M418 0h-30l-358 700h30z" />
<glyph unicode="]" horiz-adv-x="320" d="M41 770v26h184v-1004h-184v26h154v952h-154z" />
<glyph unicode="^" horiz-adv-x="668" d="M334 685l-247 -320l-22 15l253 328h32l253 -328l-22 -15z" />
<glyph unicode="_" horiz-adv-x="723" d="M633 -21h-543v21h543v-21z" />
<glyph unicode="`" horiz-adv-x="500" d="M214 902l99 -148h-30l-96 138z" />
<glyph unicode="a" horiz-adv-x="579" d="M440 182h-302l-79 -182h-29l247 560h25l247 -560h-29zM429 208l-70 160q-68 155 -68 163h-2q0 -4 -73 -170l-67 -153h280z" />
<glyph unicode="b" horiz-adv-x="533" d="M345 299v-3q53 -4 98 -39.5t45 -104.5t-49.5 -110.5t-130.5 -41.5h-218v560h196q71 0 116 -38.5t45 -94.5q0 -105 -102 -128zM117 307h164q54 0 96.5 30t42.5 87q0 47 -38 78.5t-100 31.5h-165v-227zM117 26h192q66 0 109 33t43 91q0 60 -45.5 95.5t-112.5 35.5h-186 v-255z" />
<glyph unicode="c" horiz-adv-x="656" d="M575 158l26 -7q-36 -75 -106.5 -119t-158.5 -44q-124 0 -207.5 83t-83.5 209q0 125 83.5 208t206.5 83q83 0 154 -41t106 -124l-26 -7q-76 146 -231 146q-116 0 -191 -74t-75 -191t75 -191.5t189 -74.5q81 0 143 39.5t96 104.5z" />
<glyph unicode="d" horiz-adv-x="612" d="M90 560h170q138 0 222.5 -76.5t84.5 -205.5q0 -128 -83 -203t-216 -75h-178v560zM117 26h150q120 0 196.5 66.5t76.5 185.5q0 120 -77 188t-204 68h-142v-508z" />
<glyph unicode="e" horiz-adv-x="513" d="M90 0v560h363v-26h-336v-227h270v-26h-270v-255h341v-26h-368z" />
<glyph unicode="f" horiz-adv-x="493" d="M453 534h-336v-235h254v-26h-254v-273h-27v560h363v-26z" />
<glyph unicode="g" horiz-adv-x="675" d="M605 0h-26v31.5v25t0.5 18.5t0.5 13.5v9v4.5v2h-1q-91 -116 -239 -116q-129 0 -212 82.5t-83 208.5t83 209t205 83q80 0 152.5 -39.5t109.5 -125.5l-26 -7q-25 58 -84.5 102t-148.5 44q-114 0 -189 -74.5t-75 -191.5t75 -191t190 -74q87 0 152.5 40.5t89.5 87.5v97h-186 v26h212v-265z" />
<glyph unicode="h" horiz-adv-x="613" d="M523 0h-27v281h-379v-281h-27v560h27v-253h379v253h27v-560z" />
<glyph unicode="i" d="M90 0v560h27v-560h-27z" />
<glyph unicode="j" horiz-adv-x="402" d="M317 560v-354q0 -105 -46 -161.5t-131 -56.5q-88 0 -140 65l15 21q47 -60 125 -60q73 0 111.5 48.5t38.5 140.5v357h27z" />
<glyph unicode="k" horiz-adv-x="531" d="M478 0l-241 317l-120 -117v-200h-27v560h27v-185v-35v-30.5t-0.5 -26t-0.5 -21.5v-15.5v-10.5v-3h1q53 53 93 92l240 235h36l-230 -224l255 -336h-33z" />
<glyph unicode="l" horiz-adv-x="478" d="M90 0v560h27v-534h321v-26h-348z" />
<glyph unicode="m" horiz-adv-x="686" d="M569 0v316l1 206h-1l-215 -384h-24l-214 385h-1v-9q0 -8 0.5 -22t0.5 -32v-38t0.5 -39t0.5 -37v-30v-316h-27v560h34l145 -258q21 -39 40 -73.5t26 -48.5l7 -13h2l7 13q7 14 26 49t41 74l144 257h34v-560h-27z" />
<glyph unicode="n" horiz-adv-x="613" d="M523 0h-26l-381 521h-1v-4q0 -4 0.5 -10.5t0.5 -15.5v-21t0.5 -24t0.5 -27v-29v-390h-27v560h27l380 -516h1v4q0 4 -0.5 10.5t-0.5 15v20t-0.5 24t-0.5 26.5v28v388h27v-560z" />
<glyph unicode="o" horiz-adv-x="667" d="M45 279q0 126 83.5 209t204.5 83t205 -83.5t84 -208.5t-84 -208t-205 -83t-204.5 83t-83.5 208zM72 279q0 -116 75 -190.5t186 -74.5t186.5 74.5t75.5 190.5q0 117 -75.5 191.5t-186.5 74.5t-186 -74.5t-75 -191.5z" />
<glyph unicode="p" horiz-adv-x="478" d="M90 560h151q101 0 154 -42t53 -117t-53 -116.5t-154 -41.5h-124v-243h-27v560zM117 269h125q87 0 133 35t46 97q0 63 -46 98t-133 35h-125v-265z" />
<glyph unicode="q" horiz-adv-x="667" d="M622 279q0 -121 -79.5 -203.5t-196.5 -87.5v-104h-27v104q-116 5 -195 87.5t-79 203.5q0 126 83.5 209t204.5 83t205 -83.5t84 -208.5zM333 14q111 0 186.5 74.5t75.5 190.5q0 117 -75.5 191.5t-186.5 74.5t-186 -74.5t-75 -191.5q0 -116 75 -190.5t186 -74.5z" />
<glyph unicode="r" horiz-adv-x="507" d="M426 0l-153 251q-30 -2 -69 -2h-87v-249h-27v560h152q98 0 152 -39t54 -114q0 -65 -39 -104.5t-107 -48.5l155 -254h-31zM117 275h124q180 0 180 130q0 129 -180 129h-124v-259z" />
<glyph unicode="s" horiz-adv-x="475" d="M40 138l25 7q7 -64 56 -97.5t126 -33.5q75 0 118 32t43 95q0 30 -10.5 52.5t-27 36t-40 23t-47.5 15.5t-51 11q-11 2 -17 3q-26 5 -42.5 9.5t-41.5 15.5t-40 25t-26 39t-11 56q0 68 47.5 106t134.5 38q166 0 195 -134l-26 -7q-13 56 -52 85.5t-114 29.5q-76 0 -117 -30.5 t-41 -86.5q0 -59 41.5 -84.5t120.5 -40.5q91 -17 128 -40q64 -41 64 -122q0 -74 -50 -113.5t-138 -39.5q-34 0 -64 6.5t-61.5 21.5t-53 46.5t-28.5 75.5z" />
<glyph unicode="t" horiz-adv-x="521" d="M481 534h-207v-534h-27v534h-207v26h441v-26z" />
<glyph unicode="u" horiz-adv-x="596" d="M516 560v-339q0 -233 -219 -233q-217 0 -217 233v339h27v-342q0 -204 191 -204t191 204v342h27z" />
<glyph unicode="v" horiz-adv-x="577" d="M300 0h-24l-256 560h29l141 -307q19 -42 36.5 -80t28 -62t18.5 -41.5t11 -25.5l4 -9h1l3 8q4 8 11.5 25t18 40.5t27.5 61t37 80.5l143 310h28z" />
<glyph unicode="w" horiz-adv-x="763" d="M523 0l-78 235q-17 51 -33 101t-23 73l-7 23h-1l-7 -24q-8 -23 -24 -73t-33 -101l-77 -234h-24l-196 560h28l101 -291q22 -62 41.5 -121t27.5 -86l9 -26h1l8 26q8 25 25 77t33 101l76 232h23l76 -232q16 -49 33 -101t25 -77l8 -26h1l8 26q9 27 28.5 86t41.5 121l101 291 h28l-196 -560h-24z" />
<glyph unicode="x" horiz-adv-x="540" d="M487 0l-125 157q-27 34 -52.5 66t-33.5 42l-8 10h-1q-1 0 -95 -121l-120 -154h-32l230 293l-210 267h32l100 -126q27 -34 53 -67t35 -45l10 -12h1l9 12q10 13 36.5 47t53.5 69l95 122h32l-211 -269l234 -291h-33z" />
<glyph unicode="y" horiz-adv-x="509" d="M268 0h-27v256l-221 304h32l110 -152l92 -126h1q3 3 94 127l109 151h31l-221 -304v-256z" />
<glyph unicode="z" horiz-adv-x="547" d="M502 536l-313 -381l-109 -129l1 -1q22 1 63 1h358v-26h-457v24l322 388q36 43 62 74t33 40l7 8h-1h-64h-351v26h449v-24z" />
<glyph unicode="{" horiz-adv-x="360" d="M183 606v-154q0 -126 -65 -158q11 -5 23 -15t27 -48.5t15 -95.5v-153q0 -92 35.5 -128t98.5 -36v-26q-76 0 -118.5 45.5t-42.5 154.5v148q0 38 -6 66t-13.5 41.5t-18 21.5t-16 9.5t-11.5 2.5h-1v26q27 5 41 26q25 36 25 115v148q0 109 42.5 154.5t118.5 45.5v-26 q-63 0 -98.5 -36t-35.5 -128z" />
<glyph unicode="|" horiz-adv-x="147" d="M60 775h27v-849h-27v849z" />
<glyph unicode="}" horiz-adv-x="360" d="M177 -18v154q0 126 65 158q-11 5 -23 15t-27 48.5t-15 95.5v153q0 92 -35.5 128t-98.5 36v26q76 0 118.5 -45.5t42.5 -154.5v-148q0 -38 6 -66t13.5 -41.5t18 -21.5t16 -9.5t11.5 -2.5h1v-26q-27 -5 -41 -26q-25 -36 -25 -115v-148q0 -109 -42.5 -154.5t-118.5 -45.5v26 q63 0 98.5 36t35.5 128z" />
<glyph unicode="~" horiz-adv-x="668" d="M531 334l5 -26q-35 -45 -107 -45q-35 0 -96 22.5t-98 22.5q-51 0 -96 -48l-7 25q43 50 108 50q35 0 95.5 -22.5t97.5 -22.5q54 0 98 44z" />
<glyph unicode="&#xa1;" d="M104 710q16 0 25 -9.5t9 -23.5t-9.5 -23t-24.5 -9q-16 0 -25 9.5t-9 22.5q0 15 9 24t25 9zM91 0v563h27v-563h-27z" />
<glyph unicode="&#xa2;" horiz-adv-x="589" d="M299 49q68 0 122 33t82 92l25 -8q-29 -65 -86.5 -102t-128.5 -41v-111h-25v111q-107 4 -175 74t-68 182q0 111 67 181.5t175 75.5v104h26v-104q74 -3 134 -42t87 -115l-25 -7q-23 62 -76 100t-129 38q-104 0 -168 -63t-64 -167t64 -167.5t163 -63.5z" />
<glyph unicode="&#xa3;" horiz-adv-x="496" d="M452 26v-26h-416v26q45 8 60.5 38.5t15.5 83.5q0 37 -8 123h-68v26h65q-8 82 -8 107q0 86 45.5 126.5t122.5 40.5q155 0 175 -149l-25 -7q-10 62 -44.5 96t-105.5 34q-141 0 -141 -140q0 -24 8 -108h222v-26h-219q8 -84 8 -122q0 -105 -56 -124l1 -1h32q31 1 80 1.5 t92 0.5h164z" />
<glyph unicode="&#xa4;" horiz-adv-x="636" d="M574 530l-72 -72q73 -75 73 -179q0 -93 -61 -165l77 -78l-18 -18l-76 77q-77 -72 -179 -72q-100 0 -179 72l-77 -77l-17 18l78 79q-61 71 -61 164q0 104 72 179l-73 72l18 18l75 -73q73 61 164 61q94 0 165 -60l74 72zM318 510q-96 0 -162.5 -67.5t-66.5 -163.5 t66.5 -163t162.5 -67t163 67t67 163t-67 163.5t-163 67.5z" />
<glyph unicode="&#xa5;" horiz-adv-x="469" d="M300 335h113v-26h-130l-35 -53v-7h165v-26h-165v-223h-27v223h-165v26h165v7l-35 53h-130v26h113l-149 225h32l121 -185l61 -93h1q6 6 62 93l121 185h31z" />
<glyph unicode="&#xa6;" horiz-adv-x="147" d="M87 490h-27v285h27v-285zM87 -74h-27v285h27v-285z" />
<glyph unicode="&#xa7;" horiz-adv-x="668" d="M460 249q52 -15 78.5 -42.5t26.5 -75.5q0 -73 -59 -108t-162 -35q-42 0 -78.5 5.5t-76.5 19.5t-65 43.5t-29 72.5l26 7q8 -122 222 -122q195 0 195 117q0 25 -10.5 43t-25 29t-48 20.5t-60.5 14t-83 13.5q-29 4 -46 7.5t-45.5 10.5t-46 16t-36 22t-27.5 32t-9 43 q0 45 32.5 72.5t86.5 37.5q-109 32 -109 109q0 33 18.5 56.5t50 35t64.5 16.5t70 5q204 0 229 -143l-25 -7q-15 68 -68 95.5t-140 27.5q-172 0 -172 -86q0 -18 6.5 -31.5t21 -24t30 -17.5t43 -13.5t49 -10.5t58.5 -10q50 -8 75 -13t59 -15t49 -22t26.5 -32.5t11.5 -48.5 q0 -90 -107 -114zM128 381q0 -26 14 -44t45.5 -30t61.5 -18.5t83 -14.5q50 -7 78 -13q59 8 94.5 33t35.5 66q0 20 -7 35.5t-23.5 26.5t-31.5 18.5t-42.5 13t-44 8.5t-47.5 7q-5 1 -7.5 1t-7 1t-7.5 1q-45 7 -53 9q-141 -17 -141 -100z" />
<glyph unicode="&#xa8;" horiz-adv-x="500" d="M162 785q-11 0 -19.5 8.5t-8.5 20.5t8.5 20.5t19.5 8.5q12 0 20.5 -8.5t8.5 -20.5t-8.5 -20.5t-20.5 -8.5zM336 785q-12 0 -20.5 8.5t-8.5 20.5t8.5 20.5t20.5 8.5t20.5 -8.5t8.5 -20.5t-8.5 -20.5t-20.5 -8.5z" />
<glyph unicode="&#xa9;" horiz-adv-x="817" d="M408 629q153 0 258.5 -103.5t105.5 -260.5t-105.5 -260.5t-258.5 -103.5q-152 0 -257.5 103.5t-105.5 260.5t105.5 260.5t257.5 103.5zM408 603q-145 0 -240.5 -93t-95.5 -244t95.5 -245t240.5 -94t241 93.5t96 245.5t-96 244.5t-241 92.5zM554 189l25 -8 q-23 -49 -71 -77.5t-108 -28.5q-84 0 -138 54t-54 137q0 85 56 138t139 53q60 0 108.5 -29.5t65.5 -85.5l-25 -7q-6 30 -43 63.5t-104 33.5q-75 0 -122.5 -45t-47.5 -120q0 -74 46 -120t120 -46q52 0 92 24t61 64z" />
<glyph unicode="&#xaa;" horiz-adv-x="383" d="M62 235h-27l147 325h19l147 -325h-27l-43 94h-173zM192 525h-1l-5 -12q-5 -12 -15.5 -37t-21.5 -49l-34 -74h153l-34 74q-11 24 -21.5 49t-15.5 37zM35 164h313v-26h-313v26z" />
<glyph unicode="&#xab;" horiz-adv-x="590" d="M295 511l19 -18l-218 -215v-2l218 -215l-19 -18l-235 234zM511 511l19 -18l-218 -215v-2l218 -215l-19 -18l-235 234z" />
<glyph unicode="&#xad;" horiz-adv-x="588" d="M475 281h-363v26h363v-26z" />
<glyph unicode="&#xae;" horiz-adv-x="817" d="M408 629q153 0 258.5 -103.5t105.5 -260.5t-105.5 -260.5t-258.5 -103.5q-152 0 -257.5 103.5t-105.5 260.5t105.5 260.5t257.5 103.5zM408 603q-145 0 -240.5 -93t-95.5 -244t95.5 -245t240.5 -94t241 93.5t96 245.5t-96 244.5t-241 92.5zM518 82l-97 162q-18 -2 -43 -2 h-51v-160h-27v369h104q64 0 100 -26.5t36 -76.5q0 -42 -24.5 -68t-67.5 -33l99 -165h-29zM327 268h77q109 0 109 78q0 79 -109 79h-77v-157z" />
<glyph unicode="&#xaf;" horiz-adv-x="500" d="M383 787h-266v25h266v-25z" />
<glyph unicode="&#xb0;" horiz-adv-x="234" d="M117 604q-42 0 -69.5 28t-27.5 70t27.5 70t69.5 28t69.5 -28t27.5 -70t-27.5 -70t-69.5 -28zM117 629q32 0 52.5 21t20.5 52q0 32 -20 52.5t-53 20.5t-53 -20.5t-20 -52.5q0 -31 20.5 -52t52.5 -21z" />
<glyph unicode="&#xb1;" horiz-adv-x="668" d="M515 321v-26h-167v-179h-29v179h-167v26h167v177h29v-177h167zM152 26h363v-26h-363v26z" />
<glyph unicode="&#xb2;" horiz-adv-x="340" d="M33 469v26l185 150q60 49 60 110q0 40 -27 64.5t-77 24.5q-48 0 -73 -19.5t-36 -63.5l-24 7q22 102 133 102q60 0 95.5 -32.5t35.5 -84.5q0 -68 -79 -132q-28 -23 -66.5 -53t-65 -50.5t-28.5 -22.5l1 -3q21 3 89 3h152v-26h-275z" />
<glyph unicode="&#xb3;" horiz-adv-x="340" d="M217 675v-3q41 -5 67 -31t26 -67q0 -50 -38 -81.5t-94 -31.5q-59 0 -101 34.5t-46 90.5l28 6q1 -46 34 -75.5t86 -29.5q50 0 77 25.5t27 61.5q0 38 -30 62.5t-79 24.5h-37v24h37q48 0 77 23.5t29 58.5q0 31 -25 54t-83 23q-52 0 -74 -20.5t-31 -62.5l-24 7 q17 102 132 102q66 0 99 -29t33 -72q0 -39 -26 -65.5t-64 -28.5z" />
<glyph unicode="&#xb4;" horiz-adv-x="500" d="M217 754h-30l99 148l27 -10z" />
<glyph unicode="&#xb6;" horiz-adv-x="508" d="M391 -140v674h-104v-674h-27v354q-108 0 -161.5 47.5t-53.5 125.5t53.5 125.5t161.5 47.5h158v-700h-27z" />
<glyph unicode="&#xb7;" horiz-adv-x="186" d="M93 249q-16 0 -25 9.5t-9 23.5t9.5 23t24.5 9q16 0 25 -9.5t9 -22.5q0 -14 -9.5 -23.5t-24.5 -9.5z" />
<glyph unicode="&#xb8;" horiz-adv-x="500" d="M354 -97q0 -34 -26.5 -53t-74.5 -19q-49 0 -77 18v27q27 -19 76 -19q75 0 75 47q0 27 -25.5 39t-78.5 14v43h27v-22q104 -10 104 -75z" />
<glyph unicode="&#xb9;" horiz-adv-x="340" d="M293 469h-231v26h102v241v19t0.5 24t1 23t0.5 18v8h-2l-30 -30l-56 -55l-18 18l105 101h26v-367h102v-26z" />
<glyph unicode="&#xba;" horiz-adv-x="419" d="M35 396q0 75 50.5 125t123.5 50t124 -50t51 -125q0 -74 -51 -124t-124 -50t-123.5 50t-50.5 124zM61 396q0 -64 42.5 -106t105.5 -42t105.5 42t42.5 106t-42.5 106.5t-105.5 42.5t-105.5 -42.5t-42.5 -106.5zM375 138h-329v26h329v-26z" />
<glyph unicode="&#xbb;" horiz-adv-x="590" d="M79 43l-19 18l218 215v2l-218 215l19 18l235 -234zM295 43l-19 18l218 215v2l-218 215l19 18l235 -234z" />
<glyph unicode="&#xbc;" horiz-adv-x="798" d="M293 307h-231v26h102v241v19t0.5 24t1 23t0.5 18v8h-2l-30 -30l-56 -55l-18 18l105 101h26v-367h102v-26zM518 700l-210 -700h-28l209 700h29zM703 0h-27v111h-199v30l199 252h27v-256h77v-26h-77v-111zM676 137v103q0 14 0.5 28t0.5 25t0.5 21t1.5 17.5t1 13v8.5l1 3h-2 q-1 0 -86 -108.5t-85 -109.5l1 -2h3h10t13.5 0.5t17.5 0.5h20h103z" />
<glyph unicode="&#xbd;" horiz-adv-x="798" d="M293 307h-231v26h102v241v19t0.5 24t1 23t0.5 18v8h-2l-30 -30l-56 -55l-18 18l105 101h26v-367h102v-26zM518 700l-210 -700h-28l209 700h29zM491 0v26l185 150q60 49 60 110q0 40 -27 64.5t-77 24.5q-48 0 -73 -19.5t-36 -63.5l-24 7q22 102 133 102q60 0 95.5 -32.5 t35.5 -84.5q0 -68 -79 -132q-28 -23 -66.5 -53t-65 -50.5t-28.5 -22.5l1 -3q21 3 89 3h152v-26h-275z" />
<glyph unicode="&#xbe;" horiz-adv-x="798" d="M217 513v-3q41 -5 67 -31t26 -67q0 -50 -38 -81.5t-94 -31.5q-59 0 -101 34.5t-46 90.5l28 6q1 -46 34 -75.5t86 -29.5q50 0 77 25.5t27 61.5q0 38 -30 62.5t-79 24.5h-37v24h37q48 0 77 23.5t29 58.5q0 31 -25 54t-83 23q-52 0 -74 -20.5t-31 -62.5l-24 7 q17 102 132 102q66 0 99 -29t33 -72q0 -39 -26 -65.5t-64 -28.5zM518 700l-210 -700h-28l209 700h29zM703 0h-27v111h-199v30l199 252h27v-256h77v-26h-77v-111zM676 137v103q0 14 0.5 28t0.5 25t0.5 21t1.5 17.5t1 13v8.5l1 3h-2q-1 0 -86 -108.5t-85 -109.5l1 -2h3h10 t13.5 0.5t17.5 0.5h20h103z" />
<glyph unicode="&#xbf;" horiz-adv-x="555" d="M294 710q16 0 25 -9.5t9 -23.5t-9.5 -23t-24.5 -9q-16 0 -25 9.5t-9 22.5q0 15 9 24t25 9zM307 563v-182q-128 -48 -180.5 -94.5t-52.5 -112.5q0 -65 45 -113t150 -48q176 0 216 163l25 -7q-21 -91 -84 -137t-160 -46q-113 0 -167 55.5t-54 130.5q0 44 19 81t54.5 63.5 t72.5 45t87 36.5v165h29z" />
<glyph unicode="&#xc0;" horiz-adv-x="715" d="M355 754l-96 138l27 10l99 -148h-30zM552 230h-389l-104 -230h-29l315 700h25l315 -700h-29zM541 255l-95 211q-13 29 -35 80t-37 86l-16 36h-1l-15 -36q-16 -35 -38 -86t-35 -80l-95 -211h367z" />
<glyph unicode="&#xc1;" horiz-adv-x="715" d="M350 754h-30l99 148l27 -10zM552 230h-389l-104 -230h-29l315 700h25l315 -700h-29zM541 255l-95 211q-13 29 -35 80t-37 86l-16 36h-1l-15 -36q-16 -35 -38 -86t-35 -80l-95 -211h367z" />
<glyph unicode="&#xc2;" horiz-adv-x="715" d="M253 767l-17 18l121 110l120 -111l-17 -18l-103 96zM552 230h-389l-104 -230h-29l315 700h25l315 -700h-29zM541 255l-95 211q-13 29 -35 80t-37 86l-16 36h-1l-15 -36q-16 -35 -38 -86t-35 -80l-95 -211h367z" />
<glyph unicode="&#xc3;" horiz-adv-x="715" d="M289 824q-40 0 -60 -29l-12 20l3 3q3 4 4 5.5t4.5 5t6 5.5t7 5t9 5t10.5 3.5t12.5 2.5t14.5 1q25 0 64 -18.5t67 -18.5q35 0 58 25l12 -20q-28 -32 -71 -32q-26 0 -65.5 18.5t-63.5 18.5zM552 230h-389l-104 -230h-29l315 700h25l315 -700h-29zM541 255l-95 211 q-13 29 -35 80t-37 86l-16 36h-1l-15 -36q-16 -35 -38 -86t-35 -80l-95 -211h367z" />
<glyph unicode="&#xc4;" horiz-adv-x="715" d="M270 785q-11 0 -19.5 8.5t-8.5 20.5t8.5 20.5t19.5 8.5q12 0 20.5 -8.5t8.5 -20.5t-8.5 -20.5t-20.5 -8.5zM444 785q-12 0 -20.5 8.5t-8.5 20.5t8.5 20.5t20.5 8.5t20.5 -8.5t8.5 -20.5t-8.5 -20.5t-20.5 -8.5zM552 230h-389l-104 -230h-29l315 700h25l315 -700h-29z M541 255l-95 211q-13 29 -35 80t-37 86l-16 36h-1l-15 -36q-16 -35 -38 -86t-35 -80l-95 -211h367z" />
<glyph unicode="&#xc5;" horiz-adv-x="715" d="M357 744q-35 0 -56.5 22t-21.5 54t21.5 54t56.5 22t56.5 -22t21.5 -54t-21.5 -54t-56.5 -22zM357 873q-24 0 -39 -15t-15 -38t15 -38t39 -15t39 15t15 38t-15 38t-39 15zM552 230h-389l-104 -230h-29l315 700h25l315 -700h-29zM541 255l-95 211q-13 29 -35 80t-37 86 l-16 36h-1l-15 -36q-16 -35 -38 -86t-35 -80l-95 -211h367z" />
<glyph unicode="&#xc6;" horiz-adv-x="971" d="M497 674v-289h336v-26h-336v-333h419v-26h-446v230h-308l-103 -230h-29l316 700h570v-26h-419zM470 255v419h-109l-188 -419h297z" />
<glyph unicode="&#xc7;" horiz-adv-x="781" d="M701 197l25 -7q-41 -93 -124 -146.5t-190 -55.5v-10q104 -10 104 -75q0 -34 -26.5 -53t-74.5 -19q-49 0 -77 18v27q27 -19 76 -19q75 0 75 47q0 27 -25.5 39t-78.5 14v31q-147 6 -243.5 105.5t-96.5 258.5q0 165 101 263.5t257 98.5q115 0 196.5 -52.5t116.5 -131.5 l-25 -8q-10 22 -27.5 45t-50 53t-87 49t-121.5 19q-147 0 -240 -90.5t-93 -245.5q0 -154 94.5 -246t235.5 -92q98 0 178 48.5t121 134.5z" />
<glyph unicode="&#xc8;" horiz-adv-x="591" d="M247 902l99 -148h-30l-96 138zM90 0v700h446v-26h-419v-289h336v-26h-336v-333h419v-26h-446z" />
<glyph unicode="&#xc9;" horiz-adv-x="591" d="M311 754h-30l99 148l27 -10zM90 0v700h446v-26h-419v-289h336v-26h-336v-333h419v-26h-446z" />
<glyph unicode="&#xca;" horiz-adv-x="591" d="M438 784l-17 -18l-103 96l-104 -95l-17 18l121 110zM90 0v700h446v-26h-419v-289h336v-26h-336v-333h419v-26h-446z" />
<glyph unicode="&#xcb;" horiz-adv-x="591" d="M231 785q-11 0 -19.5 8.5t-8.5 20.5t8.5 20.5t19.5 8.5q12 0 20.5 -8.5t8.5 -20.5t-8.5 -20.5t-20.5 -8.5zM405 785q-12 0 -20.5 8.5t-8.5 20.5t8.5 20.5t20.5 8.5t20.5 -8.5t8.5 -20.5t-8.5 -20.5t-20.5 -8.5zM90 0v700h446v-26h-419v-289h336v-26h-336v-333h419v-26 h-446z" />
<glyph unicode="&#xcc;" d="M33 902l99 -148h-30l-96 138zM90 0v700h27v-700h-27z" />
<glyph unicode="&#xcd;" d="M97 754h-30l99 148l27 -10zM90 0v700h27v-700h-27z" />
<glyph unicode="&#xce;" d="M205 784l-17 -18l-84 92l-84 -91l-17 18l101 110zM90 0v700h27v-700h-27z" />
<glyph unicode="&#xcf;" d="M57 785q-11 0 -19.5 8.5t-8.5 20.5t8.5 20.5t19.5 8.5q12 0 20.5 -8.5t8.5 -20.5t-8.5 -20.5t-20.5 -8.5zM151 785q-12 0 -20.5 8.5t-8.5 20.5t8.5 20.5t20.5 8.5t20.5 -8.5t8.5 -20.5t-8.5 -20.5t-20.5 -8.5zM90 0v700h27v-700h-27z" />
<glyph unicode="&#xd0;" horiz-adv-x="715" d="M90 700h207q168 0 270.5 -95t102.5 -258q0 -161 -100.5 -254t-262.5 -93h-217v359h-78v26h78v315zM117 26h190q147 0 241.5 84.5t94.5 236.5q0 154 -95.5 240.5t-250.5 86.5h-180v-289h198v-26h-198v-333z" />
<glyph unicode="&#xd1;" horiz-adv-x="713" d="M486 839l12 -20q-28 -32 -71 -32q-26 0 -65.5 18.5t-63.5 18.5q-40 0 -60 -29l-12 20l3 3q3 4 4 5.5t4.5 5t6 5.5t7 5t9 5t10.5 3.5t12.5 2.5t14.5 1q25 0 64 -18.5t67 -18.5q35 0 58 25zM596 0l-481 665h-1v-5q0 -5 0.5 -13t1 -19.5t0.5 -26t0.5 -30t0.5 -34v-35.5v-502 h-27v700h27l481 -661h1v5q0 5 -0.5 13t-0.5 19.5t-0.5 26t-1 30t-0.5 33.5v35v499h27v-700h-27z" />
<glyph unicode="&#xd2;" horiz-adv-x="807" d="M333 902l99 -148h-30l-96 138zM45 351q0 162 103 262.5t255 100.5t255.5 -100.5t103.5 -262.5t-103.5 -262.5t-255.5 -100.5t-255 100.5t-103 262.5zM72 351q0 -154 94.5 -245.5t236.5 -91.5t237 91.5t95 245.5t-95 245.5t-237 91.5t-236.5 -91.5t-94.5 -245.5z" />
<glyph unicode="&#xd3;" horiz-adv-x="807" d="M397 754h-30l99 148l27 -10zM45 351q0 162 103 262.5t255 100.5t255.5 -100.5t103.5 -262.5t-103.5 -262.5t-255.5 -100.5t-255 100.5t-103 262.5zM72 351q0 -154 94.5 -245.5t236.5 -91.5t237 91.5t95 245.5t-95 245.5t-237 91.5t-236.5 -91.5t-94.5 -245.5z" />
<glyph unicode="&#xd4;" horiz-adv-x="807" d="M524 784l-17 -18l-103 96l-104 -95l-17 18l121 110zM45 351q0 162 103 262.5t255 100.5t255.5 -100.5t103.5 -262.5t-103.5 -262.5t-255.5 -100.5t-255 100.5t-103 262.5zM72 351q0 -154 94.5 -245.5t236.5 -91.5t237 91.5t95 245.5t-95 245.5t-237 91.5t-236.5 -91.5 t-94.5 -245.5z" />
<glyph unicode="&#xd5;" horiz-adv-x="807" d="M524 839l12 -20q-28 -32 -71 -32q-26 0 -65.5 18.5t-63.5 18.5q-40 0 -60 -29l-12 20l3 3q3 4 4 5.5t4.5 5t6 5.5t7 5t9 5t10.5 3.5t12.5 2.5t14.5 1q25 0 64 -18.5t67 -18.5q35 0 58 25zM45 351q0 162 103 262.5t255 100.5t255.5 -100.5t103.5 -262.5t-103.5 -262.5 t-255.5 -100.5t-255 100.5t-103 262.5zM72 351q0 -154 94.5 -245.5t236.5 -91.5t237 91.5t95 245.5t-95 245.5t-237 91.5t-236.5 -91.5t-94.5 -245.5z" />
<glyph unicode="&#xd6;" horiz-adv-x="807" d="M317 785q-11 0 -19.5 8.5t-8.5 20.5t8.5 20.5t19.5 8.5q12 0 20.5 -8.5t8.5 -20.5t-8.5 -20.5t-20.5 -8.5zM491 785q-12 0 -20.5 8.5t-8.5 20.5t8.5 20.5t20.5 8.5t20.5 -8.5t8.5 -20.5t-8.5 -20.5t-20.5 -8.5zM45 351q0 162 103 262.5t255 100.5t255.5 -100.5 t103.5 -262.5t-103.5 -262.5t-255.5 -100.5t-255 100.5t-103 262.5zM72 351q0 -154 94.5 -245.5t236.5 -91.5t237 91.5t95 245.5t-95 245.5t-237 91.5t-236.5 -91.5t-94.5 -245.5z" />
<glyph unicode="&#xd7;" horiz-adv-x="668" d="M352 296l133 -133l-18 -17l-133 133l-133 -133l-17 17l133 133l-133 134l17 17l133 -133l133 132l17 -17z" />
<glyph unicode="&#xd8;" horiz-adv-x="807" d="M706 724l-69 -91q125 -105 125 -282q0 -162 -103.5 -262.5t-255.5 -100.5q-118 0 -208 62l-72 -94l-19 15l71 94q-130 104 -130 286q0 162 103 262.5t255 100.5q122 0 215 -67l69 91zM72 351q0 -173 118 -266l413 542q-85 61 -200 61q-142 0 -236.5 -91.5t-94.5 -245.5z M403 14q142 0 237 91.5t95 245.5q0 167 -113 262l-412 -543q84 -56 193 -56z" />
<glyph unicode="&#xd9;" horiz-adv-x="687" d="M271 902l99 -148h-30l-96 138zM607 700v-420q0 -292 -264 -292q-263 0 -263 292v420h27v-424q0 -262 236 -262q121 0 179 65.5t58 196.5v424h27z" />
<glyph unicode="&#xda;" horiz-adv-x="687" d="M335 754h-30l99 148l27 -10zM607 700v-420q0 -292 -264 -292q-263 0 -263 292v420h27v-424q0 -262 236 -262q121 0 179 65.5t58 196.5v424h27z" />
<glyph unicode="&#xdb;" horiz-adv-x="687" d="M462 784l-17 -18l-103 96l-104 -95l-17 18l121 110zM607 700v-420q0 -292 -264 -292q-263 0 -263 292v420h27v-424q0 -262 236 -262q121 0 179 65.5t58 196.5v424h27z" />
<glyph unicode="&#xdc;" horiz-adv-x="687" d="M255 785q-11 0 -19.5 8.5t-8.5 20.5t8.5 20.5t19.5 8.5q12 0 20.5 -8.5t8.5 -20.5t-8.5 -20.5t-20.5 -8.5zM429 785q-12 0 -20.5 8.5t-8.5 20.5t8.5 20.5t20.5 8.5t20.5 -8.5t8.5 -20.5t-8.5 -20.5t-20.5 -8.5zM607 700v-420q0 -292 -264 -292q-263 0 -263 292v420h27 v-424q0 -262 236 -262q121 0 179 65.5t58 196.5v424h27z" />
<glyph unicode="&#xdd;" horiz-adv-x="622" d="M306 754h-30l99 148l27 -10zM324 322v-322h-27v322l-277 378h32l187 -255l72 -97h1l8 11q8 11 25 34.5t35 48.5l190 258h32z" />
<glyph unicode="&#xde;" horiz-adv-x="534" d="M117 544h143q118 0 181 -48.5t63 -140.5t-63 -140t-181 -48h-143v-167h-27v700h27v-156zM117 193h143q217 0 217 162q0 163 -217 163h-143v-325z" />
<glyph unicode="&#xdf;" horiz-adv-x="563" d="M336 331h7q80 0 132.5 -44t52.5 -122t-51 -127.5t-132 -49.5q-80 0 -135 43l15 21q48 -39 119 -39q69 0 113 42t44 108q0 64 -41.5 104t-109.5 40h-44v27l118 199l-1 1h-63h-243v-534h-27v560h381l-135 -228v-1z" />
<glyph unicode="&#xe0;" horiz-adv-x="579" d="M288 614l-96 138l27 10l99 -148h-30zM440 182h-302l-79 -182h-29l247 560h25l247 -560h-29zM429 208l-70 160q-68 155 -68 163h-2q0 -4 -73 -170l-67 -153h280z" />
<glyph unicode="&#xe1;" horiz-adv-x="579" d="M283 614h-30l99 148l27 -10zM440 182h-302l-79 -182h-29l247 560h25l247 -560h-29zM429 208l-70 160q-68 155 -68 163h-2q0 -4 -73 -170l-67 -153h280z" />
<glyph unicode="&#xe2;" horiz-adv-x="579" d="M206 627l-17 18l101 110l101 -111l-17 -18l-84 92zM440 182h-302l-79 -182h-29l247 560h25l247 -560h-29zM429 208l-70 160q-68 155 -68 163h-2q0 -4 -73 -170l-67 -153h280z" />
<glyph unicode="&#xe3;" horiz-adv-x="579" d="M225 684q-33 0 -50 -29l-11 22q24 34 62 34q24 0 59.5 -18.5t60.5 -18.5q8 0 14.5 1.5t11 3t8.5 5t6 5t5 5.5t4 5l11 -22q-23 -30 -61 -30q-25 0 -61.5 18.5t-58.5 18.5zM440 182h-302l-79 -182h-29l247 560h25l247 -560h-29zM429 208l-70 160q-68 155 -68 163h-2 q0 -4 -73 -170l-67 -153h280z" />
<glyph unicode="&#xe4;" horiz-adv-x="579" d="M203 645q-11 0 -19.5 8.5t-8.5 20.5t8.5 20.5t19.5 8.5q12 0 20.5 -8.5t8.5 -20.5t-8.5 -20.5t-20.5 -8.5zM377 645q-12 0 -20.5 8.5t-8.5 20.5t8.5 20.5t20.5 8.5t20.5 -8.5t8.5 -20.5t-8.5 -20.5t-20.5 -8.5zM440 182h-302l-79 -182h-29l247 560h25l247 -560h-29z M429 208l-70 160q-68 155 -68 163h-2q0 -4 -73 -170l-67 -153h280z" />
<glyph unicode="&#xe5;" horiz-adv-x="579" d="M290 604q-35 0 -56.5 22t-21.5 54t21.5 54t56.5 22t56.5 -22t21.5 -54t-21.5 -54t-56.5 -22zM290 733q-24 0 -39 -15t-15 -38t15 -38t39 -15t39 15t15 38t-15 38t-39 15zM440 182h-302l-79 -182h-29l247 560h25l247 -560h-29zM429 208l-70 160q-68 155 -68 163h-2 q0 -4 -73 -170l-67 -153h280z" />
<glyph unicode="&#xe6;" horiz-adv-x="800" d="M745 26v-26h-368v182h-239l-79 -182h-29l247 560h463v-26h-336v-227h270v-26h-270v-255h341zM377 208v326h-85l-142 -326h227z" />
<glyph unicode="&#xe7;" horiz-adv-x="656" d="M575 158l26 -7q-34 -71 -100 -115t-148 -48v-13q104 -10 104 -75q0 -34 -26.5 -53t-74.5 -19q-49 0 -77 18v27q27 -19 76 -19q75 0 75 47q0 27 -25.5 39t-78.5 14v34q-120 4 -200.5 86.5t-80.5 205.5q0 125 83.5 208t206.5 83q83 0 154 -41t106 -124l-26 -7 q-76 146 -231 146q-116 0 -191 -74t-75 -191t75 -191.5t189 -74.5q81 0 143 39.5t96 104.5z" />
<glyph unicode="&#xe8;" horiz-adv-x="513" d="M202 762l99 -148h-30l-96 138zM90 0v560h363v-26h-336v-227h270v-26h-270v-255h341v-26h-368z" />
<glyph unicode="&#xe9;" horiz-adv-x="513" d="M266 614h-30l99 148l27 -10zM90 0v560h363v-26h-336v-227h270v-26h-270v-255h341v-26h-368z" />
<glyph unicode="&#xea;" horiz-adv-x="513" d="M393 644l-17 -18l-103 96l-104 -95l-17 18l121 110zM90 0v560h363v-26h-336v-227h270v-26h-270v-255h341v-26h-368z" />
<glyph unicode="&#xeb;" horiz-adv-x="513" d="M186 645q-11 0 -19.5 8.5t-8.5 20.5t8.5 20.5t19.5 8.5q12 0 20.5 -8.5t8.5 -20.5t-8.5 -20.5t-20.5 -8.5zM360 645q-12 0 -20.5 8.5t-8.5 20.5t8.5 20.5t20.5 8.5t20.5 -8.5t8.5 -20.5t-8.5 -20.5t-20.5 -8.5zM90 0v560h363v-26h-336v-227h270v-26h-270v-255h341v-26 h-368z" />
<glyph unicode="&#xec;" d="M33 762l99 -148h-30l-96 138zM90 0v560h27v-560h-27z" />
<glyph unicode="&#xed;" d="M97 614h-30l99 148l27 -10zM90 0v560h27v-560h-27z" />
<glyph unicode="&#xee;" d="M205 644l-17 -18l-84 92l-84 -91l-17 18l101 110zM90 0v560h27v-560h-27z" />
<glyph unicode="&#xef;" d="M57 645q-11 0 -19.5 8.5t-8.5 20.5t8.5 20.5t19.5 8.5q12 0 20.5 -8.5t8.5 -20.5t-8.5 -20.5t-20.5 -8.5zM151 645q-12 0 -20.5 8.5t-8.5 20.5t8.5 20.5t20.5 8.5t20.5 -8.5t8.5 -20.5t-8.5 -20.5t-20.5 -8.5zM90 0v560h27v-560h-27z" />
<glyph unicode="&#xf0;" horiz-adv-x="612" d="M90 560h170q138 0 222.5 -76.5t84.5 -205.5q0 -128 -83 -203t-216 -75h-178v281h-78v26h78v253zM117 26h150q120 0 196.5 66.5t76.5 185.5q0 120 -77 188t-204 68h-142v-227h198v-26h-198v-255z" />
<glyph unicode="&#xf1;" horiz-adv-x="613" d="M407 699l11 -22q-23 -30 -61 -30q-25 0 -61.5 18.5t-58.5 18.5q-33 0 -50 -29l-11 22q24 34 62 34q24 0 59.5 -18.5t60.5 -18.5q8 0 14.5 1.5t11 3t8.5 5t6 5t5 5.5t4 5zM523 0h-26l-381 521h-1v-4q0 -4 0.5 -10.5t0.5 -15.5v-21t0.5 -24t0.5 -27v-29v-390h-27v560h27 l380 -516h1v4q0 4 -0.5 10.5t-0.5 15v20t-0.5 24t-0.5 26.5v28v388h27v-560z" />
<glyph unicode="&#xf2;" horiz-adv-x="667" d="M264 762l99 -148h-30l-96 138zM45 279q0 126 83.5 209t204.5 83t205 -83.5t84 -208.5t-84 -208t-205 -83t-204.5 83t-83.5 208zM72 279q0 -116 75 -190.5t186 -74.5t186.5 74.5t75.5 190.5q0 117 -75.5 191.5t-186.5 74.5t-186 -74.5t-75 -191.5z" />
<glyph unicode="&#xf3;" horiz-adv-x="667" d="M328 614h-30l99 148l27 -10zM45 279q0 126 83.5 209t204.5 83t205 -83.5t84 -208.5t-84 -208t-205 -83t-204.5 83t-83.5 208zM72 279q0 -116 75 -190.5t186 -74.5t186.5 74.5t75.5 190.5q0 117 -75.5 191.5t-186.5 74.5t-186 -74.5t-75 -191.5z" />
<glyph unicode="&#xf4;" horiz-adv-x="667" d="M455 644l-17 -18l-103 96l-104 -95l-17 18l121 110zM45 279q0 126 83.5 209t204.5 83t205 -83.5t84 -208.5t-84 -208t-205 -83t-204.5 83t-83.5 208zM72 279q0 -116 75 -190.5t186 -74.5t186.5 74.5t75.5 190.5q0 117 -75.5 191.5t-186.5 74.5t-186 -74.5t-75 -191.5z " />
<glyph unicode="&#xf5;" horiz-adv-x="667" d="M440 699l11 -22q-23 -30 -61 -30q-25 0 -61.5 18.5t-58.5 18.5q-33 0 -50 -29l-11 22q24 34 62 34q24 0 59.5 -18.5t60.5 -18.5q8 0 14.5 1.5t11 3t8.5 5t6 5t5 5.5t4 5zM45 279q0 126 83.5 209t204.5 83t205 -83.5t84 -208.5t-84 -208t-205 -83t-204.5 83t-83.5 208z M72 279q0 -116 75 -190.5t186 -74.5t186.5 74.5t75.5 190.5q0 117 -75.5 191.5t-186.5 74.5t-186 -74.5t-75 -191.5z" />
<glyph unicode="&#xf6;" horiz-adv-x="667" d="M248 645q-11 0 -19.5 8.5t-8.5 20.5t8.5 20.5t19.5 8.5q12 0 20.5 -8.5t8.5 -20.5t-8.5 -20.5t-20.5 -8.5zM422 645q-12 0 -20.5 8.5t-8.5 20.5t8.5 20.5t20.5 8.5t20.5 -8.5t8.5 -20.5t-8.5 -20.5t-20.5 -8.5zM45 279q0 126 83.5 209t204.5 83t205 -83.5t84 -208.5 t-84 -208t-205 -83t-204.5 83t-83.5 208zM72 279q0 -116 75 -190.5t186 -74.5t186.5 74.5t75.5 190.5q0 117 -75.5 191.5t-186.5 74.5t-186 -74.5t-75 -191.5z" />
<glyph unicode="&#xf7;" horiz-adv-x="668" d="M334 440q-16 0 -25 9.5t-9 23.5t9.5 23t24.5 9q16 0 25 -9.5t9 -22.5q0 -15 -9 -24t-25 -9zM515 281h-363v26h363v-26zM334 88q-16 0 -25 9.5t-9 23.5t9.5 23t24.5 9q16 0 25 -9.5t9 -22.5q0 -15 -9 -24t-25 -9z" />
<glyph unicode="&#xf8;" horiz-adv-x="667" d="M583 584l-62 -80q101 -85 101 -225q0 -125 -84 -208t-205 -83q-97 0 -171 55l-64 -82l-19 15l64 82q-98 85 -98 221q0 126 83.5 209t204.5 83q94 0 168 -52l63 80zM72 279q0 -125 86 -201l328 420q-67 47 -153 47q-111 0 -186 -74.5t-75 -191.5zM333 14q111 0 186.5 74.5 t75.5 190.5q0 128 -90 205l-328 -421q68 -49 156 -49z" />
<glyph unicode="&#xf9;" horiz-adv-x="596" d="M229 762l99 -148h-30l-96 138zM516 560v-339q0 -233 -219 -233q-217 0 -217 233v339h27v-342q0 -204 191 -204t191 204v342h27z" />
<glyph unicode="&#xfa;" horiz-adv-x="596" d="M293 614h-30l99 148l27 -10zM516 560v-339q0 -233 -219 -233q-217 0 -217 233v339h27v-342q0 -204 191 -204t191 204v342h27z" />
<glyph unicode="&#xfb;" horiz-adv-x="596" d="M420 644l-17 -18l-103 96l-104 -95l-17 18l121 110zM516 560v-339q0 -233 -219 -233q-217 0 -217 233v339h27v-342q0 -204 191 -204t191 204v342h27z" />
<glyph unicode="&#xfc;" horiz-adv-x="596" d="M213 645q-11 0 -19.5 8.5t-8.5 20.5t8.5 20.5t19.5 8.5q12 0 20.5 -8.5t8.5 -20.5t-8.5 -20.5t-20.5 -8.5zM387 645q-12 0 -20.5 8.5t-8.5 20.5t8.5 20.5t20.5 8.5t20.5 -8.5t8.5 -20.5t-8.5 -20.5t-20.5 -8.5zM516 560v-339q0 -233 -219 -233q-217 0 -217 233v339h27 v-342q0 -204 191 -204t191 204v342h27z" />
<glyph unicode="&#xfd;" horiz-adv-x="509" d="M250 614h-30l99 148l27 -10zM268 0h-27v256l-221 304h32l110 -152l92 -126h1q3 3 94 127l109 151h31l-221 -304v-256z" />
<glyph unicode="&#xfe;" horiz-adv-x="440" d="M117 425h90q102 0 152.5 -33t50.5 -106t-50.5 -105.5t-152.5 -32.5h-90v-148h-27v560h27v-135zM117 174h90q92 0 134 25t42 87t-43 87.5t-133 25.5h-90v-225z" />
<glyph unicode="&#xff;" horiz-adv-x="509" d="M170 645q-11 0 -19.5 8.5t-8.5 20.5t8.5 20.5t19.5 8.5q12 0 20.5 -8.5t8.5 -20.5t-8.5 -20.5t-20.5 -8.5zM344 645q-12 0 -20.5 8.5t-8.5 20.5t8.5 20.5t20.5 8.5t20.5 -8.5t8.5 -20.5t-8.5 -20.5t-20.5 -8.5zM268 0h-27v256l-221 304h32l110 -152l92 -126h1q3 3 94 127 l109 151h31l-221 -304v-256z" />
<glyph unicode="&#x152;" horiz-adv-x="980" d="M501 674v-289h336v-26h-336v-333h419v-26h-441q-28 -4 -71 -4q-162 0 -262.5 98t-100.5 256t100.5 256t263.5 98q27 0 65 -4h446v-26h-419zM72 351q0 -151 92 -240t244 -89q29 0 66 5v646q-35 5 -66 5q-153 0 -244.5 -88t-91.5 -239z" />
<glyph unicode="&#x153;" horiz-adv-x="826" d="M766 26v-26h-368q-27 -3 -58 -3q-131 0 -213 78.5t-82 204.5t82 204.5t214 78.5q33 0 58 -3h362v-26h-336v-227h270v-26h-270v-255h341zM341 23q33 0 57 4v506q-25 4 -57 4q-122 0 -195.5 -69t-73.5 -187t74 -188t195 -70z" />
<glyph unicode="&#x178;" horiz-adv-x="622" d="M226 785q-11 0 -19.5 8.5t-8.5 20.5t8.5 20.5t19.5 8.5q12 0 20.5 -8.5t8.5 -20.5t-8.5 -20.5t-20.5 -8.5zM400 785q-12 0 -20.5 8.5t-8.5 20.5t8.5 20.5t20.5 8.5t20.5 -8.5t8.5 -20.5t-8.5 -20.5t-20.5 -8.5zM324 322v-322h-27v322l-277 378h32l187 -255l72 -97h1l8 11 q8 11 25 34.5t35 48.5l190 258h32z" />
<glyph unicode="&#x2c6;" horiz-adv-x="500" d="M370 784l-17 -18l-103 96l-104 -95l-17 18l121 110z" />
<glyph unicode="&#x2dc;" horiz-adv-x="500" d="M359 839l11 -22q-22 -30 -61 -30q-25 0 -61.5 18.5t-58.5 18.5q-33 0 -50 -29l-11 22q24 34 62 34q24 0 59.5 -18.5t60.5 -18.5q8 0 14.5 1.5t11 3t8.5 5t6 5t5 5.5t4 5z" />
<glyph unicode="&#x2000;" horiz-adv-x="451" />
<glyph unicode="&#x2001;" horiz-adv-x="902" />
<glyph unicode="&#x2002;" horiz-adv-x="451" />
<glyph unicode="&#x2003;" horiz-adv-x="902" />
<glyph unicode="&#x2004;" horiz-adv-x="300" />
<glyph unicode="&#x2005;" horiz-adv-x="225" />
<glyph unicode="&#x2006;" horiz-adv-x="150" />
<glyph unicode="&#x2007;" horiz-adv-x="150" />
<glyph unicode="&#x2008;" horiz-adv-x="112" />
<glyph unicode="&#x2009;" horiz-adv-x="180" />
<glyph unicode="&#x200a;" horiz-adv-x="50" />
<glyph unicode="&#x2010;" horiz-adv-x="588" d="M475 281h-363v26h363v-26z" />
<glyph unicode="&#x2011;" horiz-adv-x="588" d="M475 281h-363v26h363v-26z" />
<glyph unicode="&#x2012;" horiz-adv-x="588" d="M475 281h-363v26h363v-26z" />
<glyph unicode="&#x2013;" horiz-adv-x="668" d="M555 281h-443v26h443v-26z" />
<glyph unicode="&#x2014;" horiz-adv-x="1029" d="M916 281h-804v26h804v-26z" />
<glyph unicode="&#x2018;" horiz-adv-x="186" d="M81 615q17 4 28 -4t11 -24q0 -32 -34 -32q-35 0 -35 42q0 30 19.5 66.5t53.5 49.5l14 -19q-23 -9 -40 -34.5t-17 -44.5z" />
<glyph unicode="&#x2019;" horiz-adv-x="186" d="M105 652q-17 -4 -28 4t-11 24q0 32 34 32q35 0 35 -42q0 -30 -19.5 -66.5t-53.5 -49.5l-14 19q23 9 40 34.5t17 44.5z" />
<glyph unicode="&#x201a;" horiz-adv-x="186" d="M105 -13q-17 -4 -28 4t-11 24q0 32 34 32q35 0 35 -42q0 -30 -19.5 -66.5t-53.5 -49.5l-14 19q23 9 40 34.5t17 44.5z" />
<glyph unicode="&#x201c;" horiz-adv-x="340" d="M78 615q17 4 28 -4t11 -24q0 -32 -34 -32q-35 0 -35 42q0 30 19.5 66.5t53.5 49.5l14 -19q-23 -9 -40 -34.5t-17 -44.5zM232 615q17 4 28 -4t11 -24q0 -32 -34 -32q-35 0 -35 42q0 30 19.5 66.5t53.5 49.5l14 -19q-23 -9 -40 -34.5t-17 -44.5z" />
<glyph unicode="&#x201d;" horiz-adv-x="340" d="M105 652q-17 -4 -28 4t-11 24q0 32 34 32q35 0 35 -42q0 -30 -19.5 -66.5t-53.5 -49.5l-14 19q23 9 40 34.5t17 44.5zM259 652q-17 -4 -28 4t-11 24q0 32 34 32q35 0 35 -42q0 -30 -19.5 -66.5t-53.5 -49.5l-14 19q23 9 40 34.5t17 44.5z" />
<glyph unicode="&#x201e;" horiz-adv-x="318" d="M105 -13q-17 -4 -28 4t-11 24q0 32 34 32q35 0 35 -42q0 -30 -19.5 -66.5t-53.5 -49.5l-14 19q23 9 40 34.5t17 44.5zM237 -13q-17 -4 -28 4t-11 24q0 32 34 32q35 0 35 -42q0 -30 -19.5 -66.5t-53.5 -49.5l-14 19q23 9 40 34.5t17 44.5z" />
<glyph unicode="&#x2022;" horiz-adv-x="304" d="M152 223q-26 0 -44 18t-18 44t18 44t44 18t44 -18t18 -44t-18 -44t-44 -18z" />
<glyph unicode="&#x2026;" horiz-adv-x="643" d="M87 -11q-28 0 -28 27q0 26 28 26q13 0 20.5 -7.5t7.5 -18.5q0 -12 -7.5 -19.5t-20.5 -7.5zM317 -11q-28 0 -28 27q0 26 28 26q13 0 20.5 -7.5t7.5 -18.5q0 -12 -7.5 -19.5t-20.5 -7.5zM557 -11q-28 0 -28 27q0 26 28 26q13 0 20.5 -7.5t7.5 -18.5q0 -12 -7.5 -19.5 t-20.5 -7.5z" />
<glyph unicode="&#x202f;" horiz-adv-x="180" />
<glyph unicode="&#x2039;" horiz-adv-x="374" d="M295 511l19 -18l-218 -215v-2l218 -215l-19 -18l-235 234z" />
<glyph unicode="&#x203a;" horiz-adv-x="374" d="M79 43l-19 18l218 215v2l-218 215l19 18l235 -234z" />
<glyph unicode="&#x205f;" horiz-adv-x="225" />
<glyph unicode="&#x20ac;" horiz-adv-x="611" d="M531 137l25 -8q-53 -141 -217 -141q-107 0 -169.5 62t-75.5 173h-49v26h47q-1 11 -1 34l1 26h-47v26h49q11 111 71.5 173.5t166.5 62.5q84 0 143.5 -38.5t74.5 -109.5l-25 -7q-12 50 -57.5 89.5t-132.5 39.5q-97 0 -150.5 -55.5t-63.5 -154.5h224v-26h-226l-1 -26 q0 -23 1 -34h226v-26h-224q12 -100 67 -154t153 -54q142 0 190 122z" />
<glyph unicode="&#x2122;" horiz-adv-x="761" d="M295 700v-25h-115v-300h-26v300h-114v25h255zM671 375h-27v157v26v27v26.5t0.5 24.5t0.5 19.5v13.5v5h-1l-4 -10q-5 -11 -13.5 -28.5t-16.5 -32.5l-79 -153h-27l-79 153q-8 15 -17 32.5t-14 28.5l-5 10h-1v-5v-13.5v-19.5t0.5 -24.5t0.5 -26.5v-27v-26v-157h-27v325h42 l88 -175l25 -50h1q1 1 25 49l88 176h40v-325z" />
</font>
</defs>
</svg>
