<?xml version="1.0" standalone="no"?>
<!DOCTYPE svg PUBLIC "-//W3C//DTD SVG 20010904//EN"
 "http://www.w3.org/TR/2001/REC-SVG-20010904/DTD/svg10.dtd">
<svg version="1.0" xmlns="http://www.w3.org/2000/svg"
 width="500.000000pt" height="500.000000pt" viewBox="0 0 500.000000 500.000000"
 preserveAspectRatio="xMidYMid meet">
<metadata>
Created by potrace 1.11, written by Peter Selinger 2001-2013
</metadata>
<g transform="translate(0.000000,500.000000) scale(0.100000,-0.100000)"
fill="#000000" stroke="none">
<path d="M3055 4922 c-94 -32 -152 -64 -217 -122 -59 -52 -137 -168 -162 -240
l-18 -55 -177 -1 c-330 -1 -632 -73 -911 -215 -515 -261 -897 -718 -1054
-1257 -124 -428 -112 -871 35 -1289 85 -240 228 -479 399 -666 l62 -67 -41
-79 c-94 -181 -96 -387 -4 -565 73 -141 223 -260 379 -301 75 -19 233 -19 308
0 151 40 304 159 374 293 18 34 36 62 40 62 4 0 48 -8 97 -17 70 -14 145 -18
335 -18 276 0 375 14 595 80 356 108 634 280 900 556 240 250 398 520 490 839
191 661 50 1356 -382 1890 -61 75 -215 229 -286 286 l-37 30 24 61 c93 227 38
483 -139 658 -114 112 -250 165 -424 165 -89 0 -119 -5 -186 -28z m337 -244
c187 -87 262 -292 174 -483 -32 -71 -94 -130 -174 -168 -61 -28 -76 -31 -157
-30 l-90 1 -48 -141 c-27 -78 -82 -238 -123 -356 -41 -118 -72 -217 -69 -220
3 -3 81 7 172 22 91 15 167 26 169 24 3 -2 -283 -473 -438 -722 -31 -49 -53
-91 -48 -93 5 -2 95 18 200 43 106 26 193 45 195 43 2 -2 -42 -57 -98 -124
-186 -221 -778 -924 -1037 -1232 -140 -167 -259 -309 -264 -317 -7 -9 0 -25
22 -53 59 -74 76 -127 76 -227 0 -79 -3 -97 -29 -149 -98 -205 -352 -269 -537
-137 -253 182 -159 585 150 641 59 10 134 4 183 -15 12 -4 23 10 47 62 17 37
107 237 201 443 94 206 171 377 171 381 0 6 -136 -28 -302 -76 -43 -12 -78
-21 -78 -19 0 1 33 49 73 106 202 284 558 800 555 803 -2 2 -90 -18 -195 -44
l-192 -48 168 221 c240 317 925 1227 934 1243 5 9 -4 28 -26 56 -70 85 -82
121 -82 237 0 86 4 113 21 151 40 86 123 159 222 196 61 22 186 13 254 -19z"/>
</g>
</svg>
